<?xml version="1.0" encoding="utf-8"?>
<!-- Generator: Adobe Illustrator 28.0.0, SVG Export Plug-In . SVG Version: 6.00 Build 0)  -->
<svg version="1.1" id="Capa_1" xmlns="http://www.w3.org/2000/svg" xmlns:xlink="http://www.w3.org/1999/xlink" x="0px" y="0px"
	 viewBox="0 0 453.54 221.1" style="enable-background:new 0 0 453.54 221.1;" xml:space="preserve">
<style type="text/css">
	.st0{fill:#41B07B;}
	.st1{fill:#9C9C9B;}
	.st2{fill:url(#SVGID_1_);}
	.st3{fill:url(#SVGID_00000039849372827800605580000016774867154617615033_);}
	.st4{fill:url(#SVGID_00000083781063592964998400000015034821963105039542_);}
	.st5{fill:url(#SVGID_00000150786390690134055730000001352241977143535002_);}
	.st6{fill:url(#SVGID_00000092434044867220148230000007904018489837133726_);}
</style>
<g>
	<g>
		<g>
			<circle class="st0" cx="318.09" cy="125.28" r="4.38"/>
		</g>
		<g>
			<path class="st0" d="M277.84,162.45v-6.27c-4.28,0-9.54,0.01-16.55-3.88c-2.87-1.59-4.84-3.34-6.74-5.03
				c-2.79-2.48-5.42-4.81-9.84-5.71c-3.77-0.77-7.78-0.19-11.98,1.71c-0.02-0.06-0.04-0.12-0.05-0.18
				c-0.08-0.31-0.16-0.62-0.22-0.93c-0.04-0.19-0.07-0.38-0.11-0.57c-0.07-0.42-0.13-0.84-0.18-1.26c-0.01-0.12-0.02-0.24-0.03-0.36
				c-0.04-0.47-0.06-0.93-0.06-1.4c0-0.1,0-0.21,0-0.31c0.01-0.46,0.03-0.92,0.08-1.38c0.01-0.13,0.03-0.25,0.04-0.38
				c0.05-0.42,0.11-0.84,0.19-1.25c0.03-0.17,0.07-0.35,0.11-0.52c0.08-0.34,0.16-0.68,0.26-1.01c0.01-0.02,0.01-0.05,0.02-0.07
				c0.06-0.22,0.14-0.43,0.21-0.65c0.07-0.21,0.15-0.42,0.23-0.62c0.05-0.12,0.09-0.24,0.14-0.36c0.09-0.23,0.19-0.45,0.29-0.68
				c0.07-0.14,0.14-0.29,0.21-0.43c0.08-0.16,0.15-0.31,0.23-0.46c0.12-0.22,0.23-0.43,0.36-0.64c0.06-0.1,0.12-0.2,0.18-0.29
				c0.12-0.2,0.25-0.4,0.38-0.6c0.12-0.19,0.25-0.37,0.38-0.55c0.02-0.03,0.04-0.05,0.06-0.08c0.2-0.28,0.42-0.55,0.64-0.81
				c0.11-0.13,0.22-0.27,0.34-0.4c0.28-0.32,0.57-0.62,0.88-0.92c0.09-0.09,0.18-0.17,0.27-0.26c0.34-0.32,0.69-0.62,1.05-0.91
				c0.08-0.06,0.15-0.12,0.23-0.18c0.37-0.29,0.76-0.56,1.16-0.81c0.1-0.06,0.19-0.12,0.29-0.18c0.36-0.23,0.74-0.44,1.12-0.64
				c0.17-0.09,0.34-0.18,0.51-0.26c0.29-0.14,0.59-0.27,0.89-0.4c0.29-0.12,0.59-0.24,0.89-0.35c0.19-0.07,0.37-0.13,0.56-0.19
				c0.41-0.13,0.82-0.25,1.23-0.35c0.11-0.03,0.23-0.05,0.34-0.08c0.46-0.1,0.92-0.19,1.38-0.25c0.1-0.01,0.2-0.03,0.3-0.04
				c0.46-0.06,0.92-0.1,1.38-0.12c0.12-0.01,0.25-0.01,0.37-0.01c0.39-0.01,0.79,0,1.18,0.02c0.09,0,0.18,0.01,0.27,0.01
				c0.11,0.01,0.23,0.01,0.34,0.02c0.32,0.03,0.64,0.06,0.96,0.11c0.12,0.02,0.25,0.04,0.37,0.06c0.15,0.02,0.3,0.05,0.45,0.08
				c0.26,0.05,0.53,0.11,0.79,0.17c0.12,0.03,0.24,0.06,0.36,0.09c0.2,0.05,0.39,0.1,0.59,0.16c0.23,0.07,0.46,0.14,0.68,0.22
				c0.12,0.04,0.24,0.08,0.35,0.13c0.2,0.07,0.4,0.15,0.6,0.23c0.22,0.09,0.44,0.18,0.65,0.28c0.13,0.06,0.26,0.12,0.39,0.19
				c0.28,0.13,0.56,0.27,0.82,0.41c0.23,0.13,0.46,0.28,0.69,0.42c0.28,0.17,0.56,0.34,0.83,0.52c0.12,0.08,0.23,0.17,0.34,0.26
				c2.19,1.61,4,3.73,5.27,6.25c0.8,1.58,1.35,3.23,1.65,4.92c0,0,0,0.01,0,0.01c0.09,0.53,0.16,1.05,0.2,1.58
				c0.02,0.21,0.02,0.43,0.03,0.65c0.02,0.33,0.03,0.66,0.03,0.99c0,0.29-0.03,0.59-0.05,0.88c-0.02,0.27-0.03,0.54-0.06,0.8
				c-0.03,0.29-0.08,0.58-0.13,0.88c-0.04,0.28-0.08,0.55-0.14,0.83c-0.06,0.26-0.13,0.52-0.2,0.78c-0.08,0.3-0.15,0.61-0.25,0.91
				c-0.14,0.44-0.3,0.88-0.47,1.31c-0.03,0.07-0.05,0.14-0.08,0.21c-0.44,1.05-0.99,2.07-1.66,3.05l5.18,3.53
				c0.64-0.93,1.19-1.9,1.68-2.88l0,0c0.02-0.03,0.03-0.06,0.04-0.1c0.12-0.25,0.24-0.51,0.35-0.76c0.05-0.11,0.1-0.22,0.15-0.33
				c0.11-0.25,0.21-0.51,0.31-0.76c0.05-0.12,0.1-0.25,0.14-0.37c0.08-0.22,0.16-0.45,0.23-0.68c0.01-0.04,0.03-0.07,0.04-0.11l0,0
				c0.01-0.03,0.02-0.05,0.02-0.08c0.03-0.1,0.06-0.19,0.09-0.29c0.05-0.17,0.1-0.35,0.15-0.53c0.03-0.1,0.06-0.21,0.09-0.31
				c0.03-0.11,0.06-0.22,0.09-0.33c0.03-0.11,0.05-0.22,0.08-0.33c0.01-0.05,0.02-0.1,0.03-0.14c0.03-0.12,0.06-0.23,0.08-0.35
				c0.03-0.12,0.05-0.23,0.07-0.35c0.01-0.04,0.01-0.07,0.02-0.11c0.02-0.1,0.04-0.19,0.05-0.29c0.03-0.14,0.05-0.28,0.08-0.42
				c0.04-0.23,0.07-0.45,0.1-0.68c0.02-0.17,0.05-0.33,0.07-0.5c0.02-0.21,0.04-0.41,0.06-0.62c0.02-0.18,0.03-0.37,0.05-0.55
				c0.01-0.2,0.02-0.4,0.03-0.6c0.01-0.19,0.02-0.37,0.02-0.56c0-0.21,0-0.42,0-0.63c0-0.17,0-0.34-0.01-0.5
				c-0.01-0.25-0.02-0.5-0.04-0.76c-0.01-0.12-0.01-0.24-0.02-0.36c-0.03-0.34-0.06-0.67-0.1-1c0-0.03-0.01-0.06-0.01-0.08
				c-0.06-0.5-0.14-1-0.23-1.5c0-0.02-0.01-0.05-0.01-0.07c-0.07-0.34-0.14-0.68-0.22-1.02c-0.05-0.2-0.1-0.39-0.15-0.59
				c-0.04-0.16-0.08-0.32-0.13-0.48c-0.93-3.24-2.55-6.3-4.81-8.93c-0.02-0.03-0.04-0.05-0.07-0.08c-0.19-0.22-0.38-0.43-0.58-0.64
				c-0.08-0.08-0.15-0.17-0.23-0.25c-0.15-0.16-0.31-0.31-0.47-0.47c-0.13-0.13-0.26-0.26-0.39-0.39c-0.12-0.11-0.25-0.22-0.37-0.33
				c-0.18-0.16-0.35-0.32-0.54-0.48c-0.1-0.08-0.2-0.16-0.3-0.25c-0.21-0.17-0.43-0.35-0.65-0.52c-0.09-0.07-0.19-0.14-0.28-0.21
				c-0.23-0.17-0.46-0.34-0.69-0.5c-0.03-0.02-0.05-0.04-0.08-0.06c-0.09-0.06-0.18-0.12-0.27-0.18c-0.12-0.08-0.24-0.16-0.36-0.24
				c-0.02-0.02-0.05-0.03-0.07-0.05c-0.07-0.04-0.14-0.08-0.2-0.12c-0.15-0.09-0.3-0.18-0.44-0.26c-0.13-0.08-0.27-0.16-0.4-0.24
				c-0.05-0.03-0.11-0.06-0.16-0.09c-0.17-0.09-0.34-0.18-0.5-0.27c-0.13-0.07-0.27-0.14-0.4-0.21c-0.02-0.01-0.04-0.02-0.06-0.03
				c-0.03-0.01-0.06-0.03-0.09-0.04c-0.19-0.09-0.38-0.18-0.57-0.27c-0.12-0.05-0.24-0.11-0.35-0.16c-0.06-0.02-0.11-0.05-0.17-0.07
				c-0.2-0.09-0.4-0.17-0.61-0.25c-0.1-0.04-0.2-0.08-0.3-0.12c-0.08-0.03-0.15-0.06-0.23-0.09c-0.2-0.07-0.4-0.14-0.6-0.21
				c-0.06-0.02-0.12-0.05-0.19-0.07c-0.03-0.01-0.05-0.02-0.08-0.02c-0.1-0.03-0.19-0.06-0.29-0.09c-0.18-0.06-0.36-0.1-0.54-0.16
				c-0.1-0.03-0.2-0.06-0.3-0.09c-0.11-0.03-0.22-0.06-0.33-0.09c-0.12-0.03-0.23-0.05-0.35-0.08c-0.05-0.01-0.1-0.02-0.15-0.03
				c-0.11-0.03-0.22-0.05-0.33-0.08c-0.12-0.03-0.24-0.05-0.35-0.08c-0.04-0.01-0.08-0.01-0.12-0.02c-0.1-0.02-0.2-0.04-0.3-0.05
				c-0.13-0.02-0.26-0.05-0.39-0.07c-0.24-0.04-0.48-0.07-0.72-0.1c-0.15-0.02-0.3-0.04-0.45-0.06c-0.22-0.03-0.44-0.04-0.66-0.06
				c-0.17-0.01-0.33-0.03-0.5-0.04c-0.22-0.01-0.43-0.02-0.65-0.03c-0.17-0.01-0.34-0.01-0.51-0.02c-0.23,0-0.46,0-0.69,0
				c-0.15,0-0.3,0-0.45,0.01c-0.27,0.01-0.54,0.02-0.82,0.04c-0.1,0.01-0.2,0.01-0.29,0.02c-0.36,0.03-0.71,0.07-1.07,0.11
				c-0.01,0-0.01,0-0.02,0c-0.51,0.06-1.01,0.14-1.51,0.24c-0.01,0-0.03,0.01-0.04,0.01c-0.35,0.07-0.7,0.14-1.05,0.22
				c-0.18,0.04-0.37,0.1-0.55,0.14c-0.17,0.05-0.35,0.09-0.52,0.14c-0.35,0.1-0.71,0.21-1.06,0.33c0,0,0,0,0,0
				c-2.85,0.96-5.53,2.47-7.87,4.48c-0.03,0.02-0.05,0.04-0.08,0.07c-0.22,0.19-0.43,0.39-0.64,0.58c-0.08,0.08-0.17,0.15-0.25,0.23
				c-0.16,0.15-0.31,0.31-0.47,0.47c-0.13,0.13-0.26,0.26-0.39,0.39c-0.11,0.12-0.22,0.25-0.33,0.37c-0.16,0.18-0.32,0.36-0.48,0.54
				c-0.08,0.1-0.16,0.2-0.24,0.3c-0.18,0.21-0.35,0.43-0.52,0.65c-0.07,0.09-0.14,0.19-0.21,0.28c-0.17,0.23-0.34,0.46-0.5,0.7
				c-0.02,0.03-0.04,0.05-0.06,0.08c-0.06,0.09-0.12,0.19-0.18,0.28c-0.07,0.11-0.15,0.22-0.22,0.34c-0.02,0.03-0.04,0.06-0.06,0.09
				c-0.04,0.06-0.08,0.12-0.11,0.19c-0.09,0.14-0.17,0.29-0.26,0.43c-0.08,0.14-0.17,0.29-0.25,0.43c-0.03,0.04-0.05,0.09-0.07,0.14
				c-0.09,0.15-0.17,0.31-0.25,0.47c-0.08,0.15-0.16,0.31-0.24,0.47c-0.01,0.02-0.02,0.04-0.03,0.05c-0.01,0.02-0.02,0.04-0.03,0.06
				c-0.08,0.16-0.16,0.33-0.23,0.5c-0.07,0.15-0.14,0.3-0.21,0.46c-0.02,0.05-0.04,0.09-0.06,0.14c-0.07,0.16-0.13,0.32-0.2,0.48
				c-0.06,0.15-0.12,0.3-0.18,0.45c-0.03,0.07-0.05,0.14-0.08,0.2c-0.02,0.06-0.04,0.12-0.06,0.19c-0.04,0.1-0.07,0.21-0.11,0.31
				c-0.04,0.1-0.07,0.2-0.11,0.31c-0.01,0.03-0.02,0.06-0.03,0.08c-0.09,0.26-0.16,0.53-0.24,0.79c-0.03,0.11-0.07,0.23-0.1,0.34
				c-0.07,0.26-0.13,0.52-0.19,0.78c-0.03,0.12-0.06,0.25-0.09,0.37c-0.05,0.24-0.1,0.49-0.14,0.73c-0.03,0.15-0.06,0.29-0.08,0.44
				c-0.04,0.22-0.07,0.44-0.1,0.66c-0.02,0.17-0.05,0.34-0.07,0.51c-0.02,0.2-0.04,0.4-0.06,0.61c-0.02,0.19-0.03,0.37-0.05,0.56
				c-0.01,0.19-0.02,0.39-0.03,0.58c-0.01,0.19-0.02,0.38-0.02,0.57c0,0.21,0,0.41,0,0.62c0,0.17,0,0.34,0.01,0.51
				c0.01,0.25,0.02,0.5,0.04,0.75c0.01,0.12,0.01,0.24,0.02,0.36c0.03,0.34,0.06,0.67,0.1,1c0,0.03,0.01,0.06,0.01,0.08
				c0.4,3.22,1.46,6.34,3.11,9.14c0.01,0.03,0.03,0.05,0.05,0.08c0.17,0.29,0.34,0.57,0.53,0.85c0.06,0.1,0.13,0.19,0.19,0.29
				c0.14,0.21,0.28,0.42,0.43,0.63c0.1,0.13,0.2,0.27,0.3,0.4c0.13,0.17,0.25,0.34,0.39,0.51c0.11,0.15,0.23,0.29,0.35,0.43
				c0.13,0.15,0.25,0.31,0.39,0.46c0.12,0.14,0.25,0.27,0.37,0.41c0.14,0.15,0.28,0.3,0.42,0.45c0.12,0.12,0.24,0.24,0.36,0.36
				c0.16,0.16,0.32,0.32,0.48,0.47c0.11,0.1,0.22,0.2,0.33,0.3c0.18,0.17,0.37,0.33,0.56,0.49c0.1,0.08,0.2,0.16,0.3,0.25
				c0.21,0.17,0.41,0.34,0.63,0.5c0.1,0.07,0.2,0.14,0.29,0.22c0.22,0.16,0.44,0.32,0.66,0.47c0.03,0.02,0.05,0.04,0.08,0.06
				c0.04,0.03,0.08,0.05,0.12,0.08c0.19,0.12,0.37,0.25,0.56,0.37c0,0,0.01,0.01,0.01,0.01c0.17,0.11,0.35,0.21,0.53,0.32
				c0.07,0.04,0.14,0.08,0.21,0.12c0.04,0.02,0.08,0.05,0.12,0.07c0.06,0.04,0.12,0.07,0.19,0.11c0.12,0.07,0.25,0.13,0.37,0.2
				c0.23,0.12,0.46,0.25,0.7,0.37c0.02,0.01,0.04,0.02,0.06,0.03c0.07,0.03,0.14,0.06,0.21,0.09c0.03,0.01,0.06,0.03,0.09,0.04
				c0.27,0.13,0.54,0.25,0.82,0.37c0.13,0.05,0.26,0.11,0.38,0.16c0.28,0.12,0.57,0.23,0.86,0.33c0.11,0.04,0.23,0.08,0.34,0.12
				c0.13,0.05,0.27,0.1,0.4,0.14c0.12,0.04,0.23,0.06,0.35,0.1c0.04,0.01,0.07,0.02,0.11,0.04c0,0,0.01,0,0.01,0
				c0.29,0.09,0.58,0.17,0.88,0.25c0.22,0.06,0.44,0.12,0.67,0.17c0.48,0.11,0.96,0.21,1.44,0.29c0.25,0.04,0.51,0.07,0.77,0.11
				c0.29,0.04,0.59,0.08,0.89,0.1c0.2,0.02,0.39,0.04,0.59,0.06c0.06,0,0.12,0,0.18,0.01c0.39,0.03,0.78,0.04,1.17,0.05
				c0.12,0,0.25,0.01,0.37,0.01c0.01,0,0.02,0,0.04,0c0.01,0,0.02,0,0.04,0c0.12,0,0.24-0.01,0.35-0.01
				c0.4-0.01,0.81-0.02,1.21-0.05c0.06,0,0.13,0,0.19-0.01c0.2-0.01,0.4-0.04,0.6-0.06c0.31-0.03,0.63-0.07,0.94-0.11
				c0.02,0,0.04,0,0.06-0.01c0.07-0.01,0.13-0.01,0.2-0.02c0.17-0.03,0.33-0.05,0.5-0.08c0.49-0.09,0.99-0.19,1.47-0.3
				c0.23-0.05,0.46-0.12,0.69-0.18c0.34-0.09,0.69-0.19,1.03-0.3c0.12-0.04,0.25-0.07,0.37-0.11l0-0.01
				c0.35-0.12,0.7-0.24,1.04-0.38c0.07-0.03,0.14-0.05,0.2-0.08c0.48-0.19,0.96-0.4,1.43-0.63c0.06-0.03,0.12-0.05,0.18-0.08
				c0.07-0.04,0.15-0.07,0.22-0.1l-0.01-0.01c0.36-0.18,0.72-0.38,1.08-0.58C268.74,162.46,273.85,162.45,277.84,162.45z
				 M243.46,147.7c2.77,0.56,4.51,2.11,6.92,4.25c1.24,1.11,2.59,2.3,4.23,3.5c-0.14,0.04-0.27,0.08-0.41,0.12
				c-0.05,0.01-0.1,0.03-0.15,0.04c-0.27,0.07-0.53,0.13-0.8,0.19c-0.07,0.01-0.14,0.03-0.21,0.04c-0.25,0.05-0.49,0.09-0.74,0.13
				c-0.1,0.02-0.2,0.03-0.3,0.04c-0.22,0.03-0.43,0.05-0.65,0.08c-0.13,0.01-0.27,0.03-0.4,0.04c-0.18,0.01-0.36,0.02-0.54,0.03
				c-0.16,0.01-0.32,0.01-0.48,0.02c-0.09,0-0.18,0-0.28,0c-0.06,0-0.13,0-0.19,0c-0.16,0-0.32-0.01-0.48-0.01
				c-0.19-0.01-0.37-0.02-0.56-0.03c-0.13-0.01-0.26-0.02-0.39-0.03c-0.22-0.02-0.44-0.04-0.66-0.07c-0.09-0.01-0.19-0.03-0.28-0.04
				c-0.25-0.04-0.5-0.08-0.75-0.12c-0.07-0.01-0.13-0.03-0.2-0.04c-0.27-0.06-0.55-0.12-0.82-0.18c-0.05-0.01-0.09-0.02-0.14-0.04
				c-0.28-0.07-0.57-0.15-0.84-0.24c-0.04-0.01-0.08-0.02-0.12-0.04c-0.14-0.05-0.29-0.1-0.43-0.15c-0.34-0.12-0.67-0.25-1-0.38
				c-0.1-0.04-0.21-0.08-0.31-0.13c-0.04-0.02-0.08-0.04-0.12-0.05c-0.33-0.15-0.64-0.31-0.96-0.48c-0.24-0.13-0.48-0.26-0.72-0.4
				c-0.28-0.16-0.55-0.34-0.81-0.52c-0.18-0.12-0.36-0.25-0.54-0.38c-0.03-0.02-0.05-0.04-0.08-0.06c-0.28-0.21-0.55-0.42-0.82-0.64
				c-0.13-0.11-0.27-0.22-0.4-0.34c-0.32-0.28-0.62-0.57-0.92-0.88c-0.09-0.09-0.18-0.18-0.26-0.27c-0.31-0.34-0.61-0.69-0.9-1.05
				c-0.06-0.08-0.13-0.16-0.19-0.24c-0.11-0.14-0.21-0.3-0.31-0.44C238.36,147.63,241.05,147.21,243.46,147.7z"/>
			<path class="st0" d="M304.38,131.78v15.18c0,5.28-4.54,9.58-10.12,9.58c-5.58,0-10.12-4.3-10.12-9.58v-15.18h-6.27v15.18
				c0,8.74,7.35,15.84,16.39,15.84c9.04,0,16.39-7.11,16.39-15.84v-15.18H304.38z"/>
			<path class="st0" d="M361.65,131.78v2.74c-2.79-2.13-6.3-3.41-10.12-3.41c-9.04,0-16.39,7.11-16.39,15.84s7.35,15.84,16.39,15.84
				c3.82,0,7.33-1.28,10.12-3.41v3.07h6.27v-30.68H361.65z M351.53,156.54c-5.58,0-10.12-4.3-10.12-9.58s4.54-9.58,10.12-9.58
				s10.12,4.3,10.12,9.58S357.11,156.54,351.53,156.54z"/>
			<g>
				<rect x="314.92" y="131.78" class="st0" width="6.27" height="30.68"/>
			</g>
			<g>
				<rect x="325.46" y="114.77" class="st0" width="6.27" height="47.7"/>
			</g>
			<path class="st0" d="M396.75,151.26c-1.67,3.13-5.08,5.28-9.03,5.28c-5.58,0-10.12-4.3-10.12-9.58s4.54-9.58,10.12-9.58
				c3.95,0,7.38,2.16,9.04,5.3l5.66-2.68c-2.67-5.25-8.25-8.89-14.7-8.89c-9.04,0-16.39,7.11-16.39,15.84s7.35,15.84,16.39,15.84
				c6.44,0,12.01-3.62,14.69-8.86L396.75,151.26z"/>
			<g>
				<path class="st0" d="M420.03,162.81c-9.04,0-16.39-7.11-16.39-15.84s7.35-15.84,16.39-15.84c9.04,0,16.39,7.11,16.39,15.84
					S429.06,162.81,420.03,162.81z M420.03,137.39c-5.58,0-10.12,4.3-10.12,9.58s4.54,9.58,10.12,9.58s10.12-4.3,10.12-9.58
					S425.61,137.39,420.03,137.39z"/>
			</g>
		</g>
	</g>
	<g>
		<path class="st1" d="M234.04,186.91h-9.53v-17.65h9.53v3.1h-6.11v4.02h6.11v3.06h-6.11v4.36h6.11V186.91z"/>
		<path class="st1" d="M240.32,186.91h-3.39v-17.65h3.27l7.3,11.28v-11.28h3.38v17.65h-3.2l-7.36-11.61V186.91z"/>
		<path class="st1" d="M270.42,174.5h-4.22c-0.5-0.68-1.1-1.19-1.79-1.53c-0.69-0.34-1.48-0.51-2.36-0.51
			c-0.71,0-1.39,0.13-2.03,0.4c-0.64,0.27-1.2,0.66-1.7,1.16c-0.53,0.53-0.93,1.15-1.22,1.85c-0.29,0.7-0.43,1.42-0.43,2.15
			c0,1.62,0.52,2.97,1.56,4.07c1.04,1.09,2.31,1.64,3.81,1.64c0.86,0,1.64-0.16,2.33-0.49c0.69-0.32,1.25-0.79,1.68-1.41h4.23
			c-0.82,1.8-1.92,3.16-3.3,4.06c-1.37,0.9-3.01,1.36-4.92,1.36c-1.33,0-2.55-0.26-3.67-0.77c-1.12-0.51-2.12-1.26-3.01-2.27
			c-0.75-0.83-1.32-1.78-1.71-2.84c-0.39-1.06-0.58-2.2-0.58-3.41c0-1.23,0.23-2.39,0.7-3.5c0.47-1.1,1.16-2.11,2.06-3.01
			c0.86-0.84,1.81-1.48,2.85-1.91s2.17-0.65,3.38-0.65c1.93,0,3.58,0.46,4.95,1.38C268.43,171.21,269.55,172.62,270.42,174.5z"/>
		<path class="st1" d="M275.07,183.22l-1.37,3.7h-3.58l6.85-17.65h2.98l6.75,17.65h-3.7l-1.39-3.7H275.07z M280.47,179.94
			l-2.09-5.69l-2.13,5.69H280.47z"/>
		<path class="st1" d="M290.85,186.91h-3.4v-17.65h3.27l7.3,11.28v-11.28h3.38v17.65h-3.2l-7.36-11.61V186.91z"/>
		<path class="st1" d="M313.15,169.26v3.1h-3.32v14.55h-3.44v-14.55h-3.32v-3.1H313.15z"/>
		<path class="st1" d="M314,178.05c0-0.97,0.13-1.88,0.39-2.75c0.26-0.86,0.64-1.67,1.15-2.42c0.87-1.27,1.97-2.25,3.29-2.94
			c1.32-0.69,2.76-1.04,4.32-1.04c1.17,0,2.3,0.23,3.39,0.68c1.09,0.45,2.06,1.1,2.92,1.95c0.88,0.88,1.55,1.87,2.01,2.97
			c0.46,1.1,0.69,2.25,0.69,3.47c0,1.26-0.22,2.45-0.65,3.55c-0.43,1.11-1.07,2.09-1.91,2.95c-0.85,0.9-1.84,1.59-2.96,2.07
			c-1.13,0.48-2.31,0.72-3.53,0.72c-1.32,0-2.53-0.23-3.64-0.7c-1.11-0.47-2.09-1.16-2.95-2.09c-0.83-0.87-1.45-1.85-1.87-2.94
			C314.21,180.45,314,179.29,314,178.05z M317.62,177.93c0,0.76,0.12,1.47,0.38,2.12c0.25,0.66,0.62,1.25,1.12,1.79
			c0.54,0.59,1.16,1.04,1.84,1.36c0.69,0.32,1.4,0.48,2.13,0.48c1.54,0,2.84-0.55,3.89-1.65c1.05-1.1,1.57-2.47,1.57-4.11
			c0-1.5-0.53-2.79-1.58-3.85c-1.06-1.06-2.32-1.59-3.8-1.59c-1.54,0-2.85,0.53-3.93,1.59
			C318.16,175.13,317.62,176.42,317.62,177.93z"/>
		<path class="st1" d="M344.93,186.91h-3.4v-17.65h3.27l7.3,11.28v-11.28h3.38v17.65h-3.2l-7.36-11.61V186.91z"/>
		<path class="st1" d="M361.01,183.22l-1.37,3.7h-3.58l6.85-17.65h2.98l6.75,17.65h-3.7l-1.39-3.7H361.01z M366.42,179.94
			l-2.08-5.69l-2.13,5.69H366.42z"/>
		<path class="st1" d="M381.17,169.26v3.1h-3.32v14.55h-3.44v-14.55h-3.32v-3.1H381.17z"/>
		<path class="st1" d="M382.8,169.26h3.46v10.18c0,1.59,0.17,2.7,0.5,3.32c0.34,0.62,0.91,0.93,1.73,0.93
			c0.82,0,1.39-0.31,1.73-0.93s0.5-1.72,0.5-3.32v-10.18h3.46v11.2c0,1.24-0.07,2.18-0.21,2.8c-0.14,0.62-0.37,1.17-0.69,1.64
			c-0.55,0.81-1.21,1.4-1.99,1.79c-0.78,0.38-1.71,0.58-2.8,0.58c-1.09,0-2.02-0.19-2.8-0.58c-0.78-0.38-1.44-0.98-1.99-1.79
			c-0.32-0.47-0.55-0.99-0.69-1.58c-0.14-0.58-0.21-1.53-0.21-2.86V169.26z"/>
		<path class="st1" d="M400.56,186.91h-3.45v-17.65h4.19c1.33,0,2.33,0.05,2.98,0.14c0.65,0.09,1.21,0.24,1.67,0.45
			c1,0.47,1.77,1.12,2.29,1.96c0.53,0.84,0.79,1.83,0.79,2.96c0,1.37-0.38,2.52-1.13,3.47s-1.77,1.55-3.07,1.81l4.41,6.85h-4.12
			l-4.56-8.2V186.91z M400.56,177.85h0.77c1.4,0,2.46-0.25,3.18-0.76c0.72-0.5,1.09-1.24,1.09-2.21c0-0.94-0.3-1.63-0.91-2.07
			s-1.55-0.67-2.84-0.67h-1.29V177.85z"/>
		<path class="st1" d="M413.78,183.22l-1.37,3.7h-3.58l6.85-17.65h2.98l6.75,17.65h-3.7l-1.39-3.7H413.78z M419.19,179.94
			l-2.09-5.69l-2.13,5.69H419.19z"/>
		<path class="st1" d="M435.13,186.91h-8.96v-17.65h3.42v14.55h5.54V186.91z"/>
	</g>
	<g>
		<g>
			<g>
				<linearGradient id="SVGID_1_" gradientUnits="userSpaceOnUse" x1="17.5855" y1="161.9554" x2="206.9576" y2="161.9554">
					<stop  offset="0.1365" style="stop-color:#3E87C7"/>
					<stop  offset="0.3964" style="stop-color:#3F7CBF"/>
					<stop  offset="0.851" style="stop-color:#405FA8"/>
					<stop  offset="1" style="stop-color:#4154A0"/>
				</linearGradient>
				<path class="st2" d="M112.2,176.57c-17,0-27.55-3.87-37.75-7.61c-9.91-3.63-19.25-7.07-35.05-6.47c-5.7,0.21-16.14,1.81-21.81,3
					l0-15.45c6.5-1.36,14.69-2.37,21.24-2.61c18.76-0.7,29.97,3.41,40.81,7.38c9.38,3.44,18.24,6.69,32.57,6.69
					c0.06,0,0.11,0,0.17,0c12.39-0.02,19.57-2.37,27.88-5.1c9.35-3.06,19.95-6.54,38.28-6.11c10.57,0.25,17.97,0.93,28.42,3.57
					l0,15.88c-9.35-2.37-19.34-4.16-28.77-4.38c-15.76-0.37-24.25,2.42-33.24,5.36c-8.73,2.86-17.76,5.82-32.55,5.85
					C112.33,176.57,112.27,176.57,112.2,176.57z"/>
			</g>
		</g>
		<g>
			<g>
				
					<linearGradient id="SVGID_00000109740970672315062770000002868115377808547250_" gradientUnits="userSpaceOnUse" x1="17.5855" y1="182.3649" x2="206.9576" y2="182.3649">
					<stop  offset="0.1365" style="stop-color:#3E87C7"/>
					<stop  offset="0.3964" style="stop-color:#3F7CBF"/>
					<stop  offset="0.851" style="stop-color:#405FA8"/>
					<stop  offset="1" style="stop-color:#4154A0"/>
				</linearGradient>
				<path style="fill:url(#SVGID_00000109740970672315062770000002868115377808547250_);" d="M112.2,194.43
					c-17,0-27.55-3.87-37.75-7.61c-9.91-3.63-17.56-7.07-33.37-6.47c-5.7,0.21-17.82,2.48-23.49,3.67v-11.02
					c6.5-1.36,14.69-2.37,21.24-2.61c18.76-0.7,29.97,3.41,40.81,7.38c9.38,3.44,18.24,6.69,32.57,6.69c0.06,0,0.11,0,0.17,0
					c12.39-0.02,19.57-2.37,27.88-5.1c9.35-3.06,19.95-6.54,38.28-6.11c10.57,0.25,17.97,0.93,28.42,3.57l0,10.78
					c-9.35-2.37-17.65-4.16-27.09-4.38c-15.76-0.37-24.25,2.42-33.24,5.36c-8.73,2.86-19.45,5.82-34.23,5.85
					C112.33,194.43,112.27,194.43,112.2,194.43z"/>
			</g>
		</g>
		<g>
			
				<linearGradient id="SVGID_00000044145529578911479140000005988061523659163827_" gradientUnits="userSpaceOnUse" x1="51.9264" y1="72.6733" x2="165.592" y2="72.6733">
				<stop  offset="1.361181e-03" style="stop-color:#E95144"/>
				<stop  offset="1" style="stop-color:#F7A812"/>
			</linearGradient>
			<path style="fill:url(#SVGID_00000044145529578911479140000005988061523659163827_);" d="M51.97,85.52c0,0.02,0,0.04,0,0.07
				c0,0.07,0,0.14,0,0.2c0.01,0.2,0.03,0.4,0.04,0.6c0.03,0.6,0.06,1.2,0.11,1.8c0.05,0.57,0.11,1.15,0.18,1.72
				c0.04,0.32,0.06,0.65,0.11,0.97c0.33,2.55,0.84,5.08,1.52,7.57l0.64-0.39c4.45-2.76,8.84-4.85,13.15-6.3
				c-0.02-0.09-0.04-0.17-0.06-0.26c-0.02-0.08-0.03-0.16-0.05-0.24c-0.09-0.47-0.16-0.94-0.23-1.41c-0.03-0.2-0.07-0.4-0.09-0.6
				c-0.05-0.35-0.08-0.7-0.12-1.05c-0.04-0.32-0.08-0.65-0.11-0.97c-0.02-0.22-0.03-0.44-0.05-0.66c-0.03-0.45-0.07-0.91-0.09-1.36
				c0-0.09,0-0.17-0.01-0.26c-0.02-0.58-0.03-1.15-0.03-1.73c0-0.32,0.02-0.63,0.03-0.95c0.01-0.33,0.01-0.67,0.03-1
				c0.03-0.63,0.08-1.26,0.14-1.89c0-0.02,0-0.04,0-0.06c0.4-3.95,1.35-7.84,2.85-11.55c0.01-0.02,0.01-0.04,0.02-0.05
				c0.22-0.55,0.46-1.09,0.71-1.63c0.06-0.13,0.12-0.25,0.18-0.38c0.22-0.46,0.44-0.92,0.67-1.37c0.13-0.26,0.27-0.52,0.41-0.78
				c0.14-0.25,0.27-0.49,0.41-0.74c0.07-0.13,0.14-0.25,0.22-0.38c0.14-0.24,0.28-0.49,0.43-0.73c0.1-0.16,0.2-0.33,0.31-0.49
				c0.14-0.22,0.29-0.45,0.43-0.67c0.13-0.2,0.27-0.41,0.4-0.61c0.09-0.13,0.18-0.26,0.27-0.4c0.02-0.03,0.04-0.06,0.06-0.09
				c0.12-0.17,0.25-0.35,0.37-0.52c0.18-0.25,0.35-0.49,0.54-0.73c0.06-0.08,0.12-0.16,0.18-0.24c0.08-0.1,0.16-0.2,0.24-0.3
				c4.96-6.31,11.68-11.08,19.54-13.75c1.43-0.49,2.88-0.88,4.34-1.21c0.33-0.07,0.65-0.15,0.98-0.22c0.26-0.05,0.52-0.09,0.78-0.14
				c1.86-0.32,3.75-0.54,5.67-0.62c7.03-0.28,13.83,1.14,19.94,4.08c0.01,0.01,0.02,0.01,0.03,0.02c0.58,0.28,1.15,0.57,1.72,0.88
				c0.08,0.05,0.16,0.09,0.25,0.14c0.47,0.26,0.93,0.52,1.38,0.8c0.05,0.03,0.1,0.06,0.15,0.09c0.1,0.06,0.21,0.13,0.31,0.19
				c0.35,0.22,0.7,0.44,1.05,0.67c0.14,0.09,0.29,0.19,0.43,0.28c0.09,0.06,0.19,0.13,0.28,0.19c0.27,0.19,0.54,0.39,0.81,0.58
				c0.21,0.15,0.42,0.31,0.63,0.46c0.08,0.06,0.16,0.12,0.24,0.18c0.1,0.08,0.2,0.16,0.3,0.24c6.31,4.96,11.08,11.68,13.75,19.54
				c0.49,1.45,0.89,2.91,1.22,4.38c0.06,0.3,0.14,0.6,0.2,0.9c0.06,0.27,0.1,0.55,0.15,0.83c0.32,1.85,0.54,3.74,0.61,5.65
				c0.28,7.02-1.13,13.81-4.06,19.92c-0.02,0.05-0.04,0.09-0.07,0.13c-0.08,0.16-0.16,0.31-0.24,0.47
				c-0.31,0.62-0.63,1.23-0.98,1.83c-0.12,0.22-0.25,0.43-0.37,0.64c-0.43,0.74-0.89,1.47-1.37,2.18c-0.09,0.13-0.18,0.26-0.27,0.39
				c-0.29,0.42-0.58,0.83-0.89,1.24c-0.11,0.15-0.22,0.29-0.33,0.43c-0.31,0.4-0.62,0.8-0.94,1.19c-0.13,0.15-0.26,0.3-0.39,0.45
				c-0.32,0.37-0.64,0.74-0.97,1.1c-0.29,0.31-0.6,0.61-0.89,0.91c0.04,0.02,0.07,0.04,0.1,0.06c4.9,2.72,9.81,4.59,14.56,5.89
				c0.1-0.13,0.21-0.26,0.31-0.38c0.19-0.24,0.38-0.48,0.56-0.73c0.36-0.48,0.7-0.96,1.04-1.45c0.13-0.19,0.27-0.38,0.4-0.58l0.01,0
				c0.05-0.07,0.09-0.15,0.14-0.22c0.02-0.03,0.04-0.05,0.05-0.08c0.07-0.1,0.14-0.21,0.2-0.32c0.35-0.54,0.7-1.07,1.03-1.62
				c0.09-0.15,0.19-0.3,0.28-0.45c0.07-0.11,0.13-0.23,0.2-0.34c0.17-0.3,0.35-0.59,0.51-0.89c0.01-0.02,0.02-0.04,0.03-0.06
				c0.22-0.38,0.43-0.76,0.64-1.15c0.16-0.29,0.3-0.59,0.45-0.88c0.15-0.29,0.31-0.58,0.45-0.88l0.01,0
				c0.04-0.07,0.07-0.14,0.1-0.22c0.06-0.13,0.12-0.26,0.18-0.4c0.02-0.03,0.03-0.06,0.05-0.1c0.04-0.09,0.08-0.19,0.13-0.28
				c0.15-0.33,0.31-0.65,0.45-0.98c0.12-0.27,0.24-0.53,0.36-0.8c0.25-0.59,0.49-1.18,0.72-1.77c0.11-0.29,0.23-0.57,0.33-0.86
				c0.21-0.56,0.4-1.12,0.59-1.69c0.11-0.33,0.23-0.67,0.33-1c0.16-0.52,0.31-1.04,0.46-1.56c0.11-0.39,0.22-0.77,0.32-1.16
				c0.12-0.48,0.24-0.96,0.35-1.45c0.1-0.43,0.2-0.85,0.29-1.28c0.1-0.47,0.18-0.94,0.27-1.41c0.08-0.43,0.16-0.87,0.23-1.3
				c0.08-0.5,0.14-1.01,0.21-1.51c0.05-0.39,0.1-0.78,0.15-1.17c0.07-0.6,0.11-1.21,0.16-1.81c0.02-0.28,0.05-0.55,0.06-0.83
				c0.03-0.55,0.05-1.1,0.06-1.66c0-0.04,0-0.09,0-0.13c0.01-0.2,0.02-0.4,0.02-0.61c0-0.07,0-0.14,0.01-0.21
				c0.01-0.46-0.01-0.92-0.02-1.38c0-0.42,0-0.83-0.01-1.25c-0.01-0.47-0.04-0.95-0.07-1.42c-0.03-0.62-0.07-1.25-0.12-1.87
				c-0.02-0.27-0.05-0.53-0.08-0.8c-0.08-0.82-0.18-1.63-0.29-2.45c-0.01-0.08-0.03-0.16-0.04-0.24c-1.03-6.96-3.35-13.79-7.02-20.1
				c-0.13-0.23-0.27-0.44-0.41-0.67c-0.35-0.58-0.68-1.16-1.05-1.73c-0.06-0.09-0.11-0.17-0.16-0.26c-0.26-0.4-0.54-0.79-0.81-1.18
				c-0.28-0.41-0.56-0.82-0.85-1.21c-0.05-0.07-0.1-0.13-0.15-0.2c-0.07-0.1-0.15-0.2-0.23-0.29c-0.08-0.1-0.15-0.2-0.23-0.3
				c-0.38-0.5-0.76-1-1.16-1.49c-0.04-0.05-0.07-0.1-0.11-0.15c-0.06-0.07-0.12-0.14-0.19-0.22c-0.16-0.2-0.33-0.39-0.5-0.58
				c-0.34-0.4-0.68-0.81-1.03-1.2c-0.11-0.13-0.23-0.24-0.34-0.37c-0.24-0.26-0.48-0.52-0.72-0.77c-0.28-0.29-0.55-0.58-0.83-0.87
				c-0.19-0.19-0.38-0.37-0.57-0.55c-0.25-0.25-0.51-0.5-0.77-0.74c-0.01-0.01-0.02-0.02-0.02-0.02c-0.16-0.15-0.32-0.32-0.49-0.47
				c-0.05-0.05-0.1-0.09-0.15-0.13c-0.32-0.29-0.65-0.57-0.98-0.86c-0.14-0.13-0.28-0.26-0.43-0.39c-0.08-0.07-0.15-0.14-0.23-0.2
				c-0.11-0.09-0.22-0.18-0.33-0.27c-0.05-0.04-0.1-0.09-0.15-0.13c-0.17-0.14-0.34-0.27-0.5-0.4c-0.04-0.03-0.08-0.07-0.13-0.1
				c-0.38-0.31-0.76-0.62-1.16-0.93c-0.09-0.07-0.18-0.13-0.28-0.2c-0.05-0.04-0.11-0.09-0.16-0.13c-0.44-0.33-0.9-0.65-1.35-0.97
				c-0.18-0.13-0.36-0.26-0.54-0.39c-0.05-0.03-0.1-0.07-0.15-0.11c-0.08-0.05-0.16-0.1-0.24-0.16c-0.01-0.01-0.02-0.02-0.03-0.02
				c-0.48-0.32-0.96-0.63-1.44-0.93c-0.02-0.01-0.04-0.02-0.05-0.03c-0.15-0.09-0.29-0.19-0.44-0.28c-0.08-0.05-0.16-0.09-0.24-0.14
				c-0.07-0.04-0.14-0.09-0.21-0.13c-0.22-0.13-0.44-0.26-0.67-0.39c-0.06-0.03-0.11-0.07-0.17-0.1c-0.37-0.21-0.73-0.43-1.1-0.63
				c-0.1-0.06-0.21-0.11-0.31-0.16c-0.06-0.03-0.12-0.07-0.19-0.1c-0.19-0.1-0.38-0.19-0.56-0.29c-0.2-0.11-0.41-0.22-0.61-0.32
				c-0.2-0.1-0.4-0.21-0.6-0.31c-0.06-0.03-0.12-0.06-0.18-0.09c-0.16-0.08-0.32-0.15-0.48-0.22c-0.01,0-0.02-0.01-0.03-0.01
				c-0.03-0.01-0.06-0.03-0.09-0.04c-0.43-0.2-0.85-0.4-1.28-0.59c-0.23-0.1-0.45-0.21-0.68-0.3c-0.62-0.27-1.25-0.52-1.88-0.76
				c-0.25-0.1-0.5-0.2-0.75-0.29c-0.59-0.22-1.19-0.42-1.78-0.62c-0.3-0.1-0.6-0.2-0.9-0.3c-0.55-0.17-1.1-0.33-1.65-0.48
				c-0.36-0.1-0.71-0.2-1.07-0.3c-0.51-0.13-1.02-0.25-1.53-0.37c-0.4-0.09-0.8-0.19-1.2-0.27c-0.5-0.1-0.99-0.19-1.49-0.28
				c-0.41-0.07-0.82-0.15-1.22-0.21c-0.53-0.08-1.06-0.15-1.59-0.22c-0.37-0.05-0.73-0.1-1.1-0.14c-0.63-0.07-1.25-0.12-1.88-0.17
				c-0.26-0.02-0.51-0.04-0.77-0.06c-0.82-0.05-1.63-0.08-2.45-0.1c-0.05,0-0.1,0-0.16,0c-0.5-0.01-0.99,0.01-1.49,0.02
				c-0.36,0-0.71,0-1.07,0.01c-0.54,0.02-1.07,0.05-1.6,0.08c-0.56,0.03-1.12,0.06-1.68,0.11c-0.33,0.03-0.67,0.07-1,0.1
				c-0.75,0.08-1.5,0.16-2.25,0.27c-0.15,0.02-0.29,0.05-0.44,0.07c-5.93,0.89-11.76,2.72-17.27,5.52c-0.05,0.03-0.1,0.05-0.15,0.08
				c-0.84,0.43-1.67,0.88-2.5,1.35c-0.31,0.18-0.61,0.37-0.92,0.56c-0.5,0.3-1,0.59-1.49,0.91c-0.11,0.07-0.22,0.13-0.32,0.2
				c-0.38,0.25-0.75,0.51-1.12,0.77c-0.43,0.3-0.86,0.59-1.28,0.9c-0.06,0.04-0.11,0.08-0.17,0.13c-0.07,0.05-0.13,0.1-0.2,0.15
				c-0.12,0.09-0.23,0.18-0.35,0.27c-0.53,0.4-1.05,0.8-1.57,1.22c-0.04,0.04-0.09,0.07-0.13,0.1c-0.07,0.05-0.13,0.11-0.19,0.16
				c-0.18,0.14-0.34,0.3-0.52,0.45c-0.44,0.37-0.87,0.74-1.3,1.12c-0.12,0.1-0.23,0.21-0.34,0.32c-0.24,0.22-0.48,0.45-0.72,0.68
				c-0.32,0.3-0.64,0.6-0.95,0.91c-0.18,0.18-0.36,0.37-0.54,0.55c-0.22,0.23-0.44,0.45-0.66,0.68c0,0-0.01,0.01-0.01,0.01
				c-0.18,0.19-0.38,0.38-0.56,0.57c-0.05,0.06-0.1,0.12-0.16,0.18c-0.28,0.3-0.54,0.61-0.81,0.92c-0.12,0.14-0.25,0.26-0.36,0.4
				c-0.08,0.1-0.17,0.19-0.25,0.29c-0.1,0.12-0.19,0.24-0.29,0.36c-0.06,0.07-0.12,0.14-0.18,0.2c-0.15,0.18-0.3,0.38-0.44,0.56
				c-0.31,0.38-0.62,0.76-0.92,1.16c-0.07,0.09-0.14,0.19-0.21,0.29c-0.07,0.09-0.14,0.18-0.21,0.28c-0.31,0.42-0.61,0.85-0.91,1.28
				c-0.12,0.16-0.24,0.32-0.35,0.49c-0.03,0.05-0.07,0.09-0.1,0.14c-0.05,0.08-0.11,0.16-0.16,0.24c-0.05,0.08-0.11,0.15-0.16,0.22
				c-0.25,0.37-0.48,0.76-0.72,1.14c-0.04,0.06-0.08,0.12-0.12,0.19c-0.09,0.15-0.19,0.29-0.28,0.44c-0.05,0.08-0.1,0.17-0.15,0.25
				c-0.09,0.15-0.19,0.29-0.28,0.44c-0.15,0.25-0.28,0.49-0.42,0.74c-0.06,0.1-0.11,0.21-0.17,0.31c-0.13,0.22-0.25,0.43-0.38,0.65
				c-0.06,0.11-0.11,0.22-0.17,0.33c-0.09,0.16-0.18,0.32-0.27,0.48c-0.05,0.09-0.09,0.18-0.13,0.26c-0.05,0.1-0.1,0.2-0.15,0.3
				c-0.03,0.05-0.06,0.11-0.08,0.16c-0.12,0.24-0.25,0.47-0.37,0.71c-0.04,0.07-0.06,0.14-0.1,0.22c-0.16,0.33-0.31,0.67-0.46,1.01
				c-0.1,0.21-0.2,0.42-0.29,0.63c-0.04,0.08-0.07,0.16-0.11,0.24c-0.11,0.25-0.23,0.5-0.33,0.74c-0.2,0.46-0.38,0.93-0.56,1.4
				c-0.04,0.1-0.08,0.2-0.12,0.3c-0.02,0.05-0.04,0.11-0.06,0.16c-0.11,0.28-0.22,0.56-0.32,0.84c-0.2,0.55-0.39,1.1-0.57,1.65
				c-0.12,0.37-0.25,0.73-0.37,1.1c-0.13,0.43-0.25,0.86-0.37,1.29c-0.14,0.5-0.29,1-0.42,1.49c-0.07,0.28-0.13,0.55-0.2,0.83
				c-0.16,0.66-0.31,1.32-0.45,1.98c-0.02,0.1-0.03,0.19-0.05,0.29c-0.12,0.59-0.2,1.18-0.3,1.77c-0.02,0.1-0.04,0.2-0.05,0.3
				c-0.15,0.92-0.27,1.84-0.37,2.77c-0.01,0.07-0.02,0.13-0.02,0.2c-0.1,0.94-0.17,1.88-0.22,2.83c0,0.04-0.01,0.07-0.01,0.11
				c0,0.03,0,0.05,0,0.08c-0.04,0.78-0.06,1.55-0.07,2.32c0,0.08-0.01,0.16-0.01,0.25c0,0.09,0,0.19,0,0.28
				C51.93,84.12,51.94,84.82,51.97,85.52z"/>
		</g>
		<g>
			
				<linearGradient id="SVGID_00000035494209839611847980000005549456197781169062_" gradientUnits="userSpaceOnUse" x1="63.7175" y1="125.701" x2="132.1162" y2="125.701">
				<stop  offset="0.1365" style="stop-color:#3E87C7"/>
				<stop  offset="0.327" style="stop-color:#3E8DBC"/>
				<stop  offset="0.6614" style="stop-color:#409D9F"/>
				<stop  offset="1" style="stop-color:#41B07B"/>
			</linearGradient>
			<path style="fill:url(#SVGID_00000035494209839611847980000005549456197781169062_);" d="M126.91,137.33
				c1.76-0.59,3.5-1.27,5.21-2.03c-1.67-0.78-3.35-1.62-5.03-2.55c-3.17-1.76-5.93-3.58-8.41-5.39c-1.36-0.8-2.63-1.62-3.85-2.43
				c-0.32,0.05-0.64,0.1-0.96,0.14c-0.13,0.02-0.26,0.03-0.39,0.05c-0.64,0.07-1.28,0.13-1.93,0.17c-0.18,0.01-0.37,0.03-0.55,0.04
				c-0.58,0.03-1.16,0.05-1.73,0.06c-0.26,0-0.52,0.01-0.79,0c-0.49,0-0.98-0.02-1.47-0.04c-0.36-0.01-0.71-0.03-1.07-0.05
				c-0.39-0.03-0.79-0.06-1.18-0.1c-0.45-0.04-0.9-0.09-1.35-0.15c-0.3-0.04-0.59-0.08-0.89-0.12c-0.49-0.07-0.98-0.15-1.47-0.24
				c-0.34-0.06-0.69-0.13-1.03-0.21c-0.41-0.09-0.81-0.18-1.22-0.27c-0.42-0.1-0.84-0.21-1.26-0.33c-0.32-0.09-0.65-0.18-0.97-0.28
				c-0.45-0.14-0.9-0.28-1.35-0.43c-0.34-0.11-0.67-0.23-1.01-0.35c-0.37-0.14-0.74-0.28-1.1-0.43c-0.42-0.17-0.84-0.34-1.25-0.52
				c-0.27-0.12-0.55-0.25-0.82-0.37c-0.49-0.23-0.98-0.46-1.46-0.71c-0.19-0.1-0.39-0.2-0.58-0.3c-0.54-0.29-1.08-0.58-1.61-0.89
				c-0.14-0.08-0.28-0.17-0.41-0.25c-0.56-0.34-1.12-0.69-1.66-1.05c-0.11-0.08-0.23-0.15-0.34-0.23c-0.55-0.37-1.09-0.76-1.62-1.16
				c-0.12-0.09-0.24-0.19-0.36-0.28c-0.5-0.39-0.99-0.79-1.48-1.2c-0.16-0.14-0.32-0.28-0.49-0.42c-0.44-0.39-0.88-0.78-1.31-1.19
				c-0.14-0.14-0.29-0.28-0.43-0.41c-0.41-0.4-0.8-0.81-1.19-1.22c-0.07-0.08-0.15-0.16-0.22-0.24c-0.13-0.14-0.26-0.28-0.39-0.43
				c-0.14-0.15-0.27-0.31-0.41-0.47c-2.74,1.07-5.58,2.5-8.5,4.31l-4.87,2.97c0.09,0.11,0.17,0.22,0.26,0.34
				c0.17,0.22,0.34,0.45,0.52,0.67c0.05,0.06,0.09,0.12,0.14,0.19c0.08,0.09,0.16,0.18,0.24,0.27c0.06,0.07,0.12,0.13,0.18,0.2
				c0.14,0.17,0.27,0.34,0.41,0.51c0.07,0.09,0.15,0.18,0.22,0.26c0.43,0.5,0.88,0.99,1.34,1.47c0.2,0.22,0.4,0.44,0.6,0.65
				c0.35,0.36,0.71,0.72,1.07,1.07c0.33,0.32,0.65,0.65,0.99,0.97c0.08,0.07,0.16,0.14,0.23,0.21c0.06,0.06,0.11,0.11,0.17,0.17
				c0.13,0.12,0.27,0.23,0.4,0.35c0,0,0,0,0,0c0.01,0.01,0.02,0.02,0.03,0.03c0.44,0.4,0.88,0.79,1.33,1.18
				c0.22,0.19,0.45,0.37,0.68,0.56c0.52,0.43,1.04,0.85,1.58,1.26c0.21,0.16,0.43,0.31,0.64,0.47c0.55,0.41,1.11,0.82,1.69,1.21
				c0.06,0.04,0.13,0.09,0.19,0.14c0.1,0.07,0.2,0.12,0.3,0.19c0.6,0.4,1.22,0.77,1.84,1.15c0.14,0.09,0.28,0.18,0.42,0.26
				c0.26,0.16,0.51,0.33,0.77,0.48c0.16,0.09,0.32,0.19,0.48,0.29c1,0.57,2.01,1.12,3.05,1.64c0.16,0.08,0.32,0.14,0.48,0.22
				c0.11,0.05,0.23,0.1,0.34,0.15c1.13,0.54,2.28,1.03,3.44,1.49c0.15,0.06,0.31,0.12,0.46,0.18c0.23,0.09,0.46,0.16,0.68,0.24
				c0.02,0.01,0.03,0.01,0.05,0.02c0.6,0.22,1.2,0.43,1.8,0.63c0.29,0.1,0.58,0.19,0.87,0.28c0.27,0.09,0.54,0.18,0.81,0.26
				c0.07,0.02,0.15,0.05,0.22,0.07c0.3,0.09,0.61,0.16,0.91,0.24c0.35,0.1,0.7,0.19,1.06,0.28c0.36,0.09,0.71,0.2,1.08,0.28
				c0.05,0.01,0.09,0.02,0.14,0.03c4.9,1.15,9.97,1.66,15.08,1.46l0-0.03c0.32-0.01,0.63-0.03,0.95-0.05c0.01,0,0.02,0,0.03,0
				c0.01,0,0.02,0,0.03,0c2.3-0.12,4.61-0.37,6.9-0.79l0-0.03c2.73-0.49,5.44-1.17,8.09-2.07L126.91,137.33z"/>
		</g>
		
			<linearGradient id="SVGID_00000021832738818159828930000011906640783153339062_" gradientUnits="userSpaceOnUse" x1="18.0417" y1="115.0313" x2="206.1411" y2="115.0313">
			<stop  offset="0.1365" style="stop-color:#3E87C7"/>
			<stop  offset="0.327" style="stop-color:#3E8DBC"/>
			<stop  offset="0.6614" style="stop-color:#409D9F"/>
			<stop  offset="1" style="stop-color:#41B07B"/>
		</linearGradient>
		<path style="fill:url(#SVGID_00000021832738818159828930000011906640783153339062_);" d="M206.14,125.16v15.21h-22.1v-15.21
			H206.14z M180.67,125.41c-10.21,0-27.3,0-44.03-9.29c-6.85-3.8-11.55-7.98-16.09-12.01c-6.65-5.91-12.93-11.49-23.48-13.63
			c-11-2.23-22.9,0.32-35.32,7.56l-6.87,3.54c1.72,5.12,3.91,9.74,6.66,13.81l7.69-4.4c9.21-5.37,17.57-7.34,24.86-5.86
			c6.61,1.34,10.77,5.04,16.52,10.15c4.91,4.36,10.47,9.31,18.76,13.91c20.11,11.17,40.4,11.17,51.29,11.17V125.41z M18.04,122.06
			v16.8l43.64-23.47l-6.74-13.61L18.04,122.06z"/>
	</g>
</g>
</svg>
